<svg xmlns="http://www.w3.org/2000/svg" width="300" viewBox="0 0 300 300" height="300" version="1.0"><defs><clipPath id="a"><path d="M 49.695312 197.109375 L 113.257812 197.109375 L 113.257812 260.722656 L 49.695312 260.722656 Z M 49.695312 197.109375"/></clipPath><clipPath id="b"><path d="M 186.742188 197.109375 L 250.363281 197.109375 L 250.363281 260.722656 L 186.742188 260.722656 Z M 186.742188 197.109375"/></clipPath></defs><g clip-path="url(#a)"><path fill="#F04141" d="M 94.304688 235.1875 C 94.59375 234.964844 94.878906 234.734375 95.15625 234.5 C 95.433594 234.265625 95.703125 234.019531 95.96875 233.769531 C 96.234375 233.519531 96.492188 233.261719 96.742188 233 C 96.996094 232.734375 97.238281 232.464844 97.476562 232.191406 C 97.714844 231.914062 97.945312 231.628906 98.167969 231.34375 C 98.390625 231.054688 98.605469 230.761719 98.8125 230.460938 C 99.019531 230.160156 99.222656 229.859375 99.414062 229.546875 C 99.605469 229.238281 99.789062 228.925781 99.964844 228.605469 C 100.140625 228.285156 100.308594 227.964844 100.464844 227.632812 C 100.625 227.308594 100.773438 226.972656 100.917969 226.640625 C 101.058594 226.304688 101.191406 225.964844 101.316406 225.621094 C 101.4375 225.28125 101.554688 224.933594 101.660156 224.585938 C 101.765625 224.238281 101.863281 223.886719 101.949219 223.53125 C 102.039062 223.179688 102.117188 222.824219 102.1875 222.464844 C 102.253906 222.109375 102.316406 221.75 102.367188 221.390625 C 102.417969 221.027344 102.460938 220.667969 102.492188 220.304688 C 102.523438 219.941406 102.546875 219.578125 102.558594 219.214844 C 102.570312 218.847656 102.574219 218.484375 102.570312 218.121094 C 102.5625 217.757812 102.546875 217.394531 102.523438 217.03125 C 102.5 216.667969 102.464844 216.304688 102.421875 215.941406 C 102.378906 215.582031 102.328125 215.21875 102.265625 214.859375 C 102.203125 214.503906 102.128906 214.144531 102.050781 213.789062 C 101.96875 213.433594 101.878906 213.082031 101.78125 212.730469 C 101.683594 212.378906 101.574219 212.035156 101.457031 211.6875 C 101.339844 211.34375 101.214844 211.003906 101.078125 210.664062 C 100.945312 210.324219 100.800781 209.992188 100.648438 209.660156 C 100.496094 209.328125 100.335938 209 100.167969 208.679688 C 99.996094 208.355469 99.820312 208.039062 99.632812 207.722656 C 99.449219 207.410156 99.253906 207.101562 99.054688 206.796875 C 98.851562 206.496094 98.644531 206.199219 98.425781 205.90625 C 98.210938 205.613281 97.984375 205.324219 97.753906 205.042969 C 97.519531 204.765625 97.28125 204.488281 97.035156 204.21875 C 96.789062 203.953125 96.535156 203.691406 96.277344 203.433594 C 96.015625 203.179688 95.75 202.929688 95.476562 202.6875 C 95.203125 202.445312 94.925781 202.210938 94.640625 201.984375 C 94.355469 201.757812 94.066406 201.535156 93.769531 201.324219 C 93.472656 201.113281 93.171875 200.910156 92.867188 200.710938 C 92.558594 200.515625 92.246094 200.328125 91.929688 200.144531 C 91.613281 199.964844 91.292969 199.792969 90.964844 199.628906 C 90.640625 199.464844 90.3125 199.3125 89.976562 199.164062 C 89.644531 199.015625 89.308594 198.878906 88.964844 198.75 C 88.625 198.621094 88.28125 198.5 87.933594 198.390625 C 87.589844 198.277344 87.238281 198.175781 86.886719 198.082031 C 86.535156 197.988281 86.179688 197.902344 85.820312 197.828125 C 85.464844 197.753906 85.105469 197.6875 84.746094 197.632812 C 84.386719 197.574219 84.027344 197.527344 83.664062 197.492188 C 83.300781 197.453125 82.9375 197.425781 82.574219 197.40625 C 82.207031 197.386719 81.84375 197.378906 81.480469 197.378906 C 81.117188 197.378906 80.75 197.386719 80.386719 197.40625 C 80.023438 197.425781 79.660156 197.453125 79.296875 197.492188 C 78.933594 197.527344 78.574219 197.574219 78.214844 197.632812 C 77.851562 197.6875 77.496094 197.753906 77.136719 197.828125 C 76.78125 197.902344 76.425781 197.988281 76.074219 198.082031 C 75.722656 198.175781 75.371094 198.277344 75.027344 198.390625 C 74.679688 198.5 74.335938 198.621094 73.996094 198.75 C 73.652344 198.878906 73.316406 199.015625 72.984375 199.164062 C 72.648438 199.3125 72.320312 199.464844 71.992188 199.628906 C 71.667969 199.792969 71.347656 199.964844 71.03125 200.144531 C 70.714844 200.328125 70.402344 200.515625 70.09375 200.710938 C 69.789062 200.910156 69.484375 201.113281 69.191406 201.324219 C 68.894531 201.535156 68.601562 201.757812 68.316406 201.984375 C 68.035156 202.210938 67.753906 202.445312 67.484375 202.6875 C 67.210938 202.929688 66.941406 203.179688 66.683594 203.433594 C 66.421875 203.691406 66.171875 203.953125 65.925781 204.21875 C 65.679688 204.488281 65.441406 204.765625 65.207031 205.042969 C 64.976562 205.324219 64.75 205.613281 64.535156 205.90625 C 64.316406 206.199219 64.109375 206.496094 63.90625 206.796875 C 63.703125 207.101562 63.511719 207.410156 63.324219 207.722656 C 63.140625 208.039062 62.964844 208.355469 62.792969 208.679688 C 62.625 209 62.464844 209.328125 62.3125 209.660156 C 62.160156 209.992188 62.015625 210.324219 61.882812 210.664062 C 61.746094 211.003906 61.621094 211.34375 61.503906 211.6875 C 61.386719 212.035156 61.277344 212.378906 61.179688 212.730469 C 61.082031 213.082031 60.992188 213.433594 60.910156 213.789062 C 60.828125 214.144531 60.757812 214.503906 60.695312 214.859375 C 60.632812 215.21875 60.582031 215.582031 60.539062 215.941406 C 60.496094 216.304688 60.460938 216.667969 60.4375 217.03125 C 60.410156 217.394531 60.394531 217.757812 60.390625 218.121094 C 60.382812 218.484375 60.390625 218.847656 60.402344 219.214844 C 60.414062 219.578125 60.4375 219.941406 60.46875 220.304688 C 60.5 220.667969 60.542969 221.027344 60.59375 221.390625 C 60.644531 221.75 60.703125 222.109375 60.773438 222.464844 C 60.84375 222.824219 60.921875 223.179688 61.007812 223.53125 C 61.097656 223.886719 61.195312 224.238281 61.300781 224.585938 C 61.40625 224.933594 61.523438 225.28125 61.644531 225.621094 C 61.769531 225.964844 61.902344 226.304688 62.042969 226.640625 C 62.183594 226.972656 62.335938 227.308594 62.496094 227.632812 C 62.652344 227.964844 62.820312 228.285156 62.996094 228.605469 C 63.171875 228.925781 63.355469 229.238281 63.546875 229.546875 C 63.738281 229.859375 63.9375 230.160156 64.148438 230.460938 C 64.355469 230.761719 64.570312 231.054688 64.792969 231.34375 C 65.015625 231.628906 65.246094 231.914062 65.484375 232.191406 C 65.722656 232.464844 65.964844 232.734375 66.21875 233 C 66.46875 233.261719 66.726562 233.519531 66.992188 233.769531 C 67.257812 234.019531 67.527344 234.265625 67.804688 234.5 C 68.082031 234.734375 68.367188 234.964844 68.65625 235.1875 C 57.1875 237.484375 49.839844 245.007812 49.839844 255.453125 C 49.839844 255.628906 49.847656 255.796875 49.867188 255.972656 C 49.882812 256.140625 49.910156 256.3125 49.941406 256.484375 C 49.976562 256.652344 50.019531 256.816406 50.066406 256.984375 C 50.117188 257.148438 50.175781 257.3125 50.242188 257.472656 C 50.308594 257.628906 50.382812 257.785156 50.464844 257.9375 C 50.546875 258.089844 50.632812 258.238281 50.730469 258.382812 C 50.824219 258.527344 50.929688 258.664062 51.039062 258.796875 C 51.148438 258.929688 51.261719 259.058594 51.386719 259.179688 C 51.507812 259.304688 51.636719 259.417969 51.769531 259.527344 C 51.902344 259.636719 52.039062 259.742188 52.183594 259.835938 C 52.328125 259.933594 52.476562 260.019531 52.628906 260.101562 C 52.78125 260.183594 52.9375 260.257812 53.097656 260.324219 C 53.253906 260.390625 53.417969 260.445312 53.582031 260.496094 C 53.75 260.546875 53.917969 260.589844 54.085938 260.621094 C 54.253906 260.65625 54.425781 260.683594 54.597656 260.699219 C 54.769531 260.714844 54.941406 260.722656 55.113281 260.722656 L 107.84375 260.722656 C 108.019531 260.722656 108.191406 260.714844 108.363281 260.699219 C 108.535156 260.679688 108.703125 260.65625 108.875 260.621094 C 109.042969 260.589844 109.210938 260.546875 109.375 260.496094 C 109.542969 260.445312 109.703125 260.390625 109.863281 260.324219 C 110.023438 260.257812 110.179688 260.183594 110.332031 260.101562 C 110.484375 260.019531 110.632812 259.933594 110.777344 259.835938 C 110.917969 259.742188 111.058594 259.636719 111.191406 259.527344 C 111.324219 259.417969 111.453125 259.304688 111.574219 259.179688 C 111.695312 259.058594 111.8125 258.929688 111.921875 258.796875 C 112.03125 258.664062 112.136719 258.527344 112.230469 258.382812 C 112.328125 258.238281 112.414062 258.089844 112.496094 257.9375 C 112.578125 257.785156 112.652344 257.628906 112.71875 257.472656 C 112.785156 257.3125 112.84375 257.148438 112.890625 256.984375 C 112.941406 256.816406 112.984375 256.652344 113.015625 256.484375 C 113.050781 256.3125 113.078125 256.140625 113.09375 255.972656 C 113.109375 255.796875 113.117188 255.628906 113.117188 255.453125 C 113.117188 245.007812 105.773438 237.484375 94.304688 235.1875 Z M 94.304688 235.1875"/></g><g clip-path="url(#b)"><path fill="#F04141" d="M 231.402344 235.1875 C 231.691406 234.964844 231.976562 234.734375 232.253906 234.5 C 232.53125 234.265625 232.804688 234.019531 233.066406 233.769531 C 233.332031 233.519531 233.589844 233.261719 233.84375 233 C 234.09375 232.734375 234.339844 232.464844 234.578125 232.191406 C 234.8125 231.914062 235.042969 231.628906 235.265625 231.34375 C 235.488281 231.054688 235.703125 230.761719 235.914062 230.460938 C 236.121094 230.160156 236.320312 229.859375 236.511719 229.546875 C 236.703125 229.238281 236.886719 228.925781 237.0625 228.605469 C 237.238281 228.285156 237.40625 227.964844 237.566406 227.632812 C 237.722656 227.308594 237.875 226.972656 238.015625 226.640625 C 238.15625 226.304688 238.289062 225.964844 238.414062 225.621094 C 238.539062 225.28125 238.652344 224.933594 238.757812 224.585938 C 238.867188 224.238281 238.960938 223.886719 239.050781 223.53125 C 239.136719 223.179688 239.214844 222.824219 239.285156 222.464844 C 239.355469 222.109375 239.414062 221.75 239.464844 221.390625 C 239.515625 221.027344 239.558594 220.667969 239.589844 220.304688 C 239.621094 219.941406 239.644531 219.578125 239.660156 219.214844 C 239.671875 218.847656 239.675781 218.484375 239.667969 218.121094 C 239.664062 217.757812 239.648438 217.394531 239.625 217.03125 C 239.597656 216.667969 239.566406 216.304688 239.523438 215.941406 C 239.476562 215.582031 239.425781 215.21875 239.363281 214.859375 C 239.300781 214.503906 239.230469 214.144531 239.148438 213.789062 C 239.066406 213.433594 238.980469 213.082031 238.878906 212.730469 C 238.78125 212.378906 238.671875 212.035156 238.554688 211.6875 C 238.4375 211.34375 238.3125 211.003906 238.179688 210.664062 C 238.042969 210.324219 237.902344 209.992188 237.746094 209.660156 C 237.597656 209.328125 237.433594 209 237.265625 208.679688 C 237.097656 208.355469 236.921875 208.039062 236.734375 207.722656 C 236.546875 207.410156 236.355469 207.101562 236.152344 206.796875 C 235.953125 206.496094 235.742188 206.199219 235.527344 205.90625 C 235.308594 205.613281 235.085938 205.324219 234.851562 205.042969 C 234.621094 204.765625 234.378906 204.488281 234.136719 204.21875 C 233.890625 203.953125 233.636719 203.691406 233.375 203.433594 C 233.117188 203.179688 232.851562 202.929688 232.578125 202.6875 C 232.304688 202.445312 232.027344 202.210938 231.742188 201.984375 C 231.457031 201.757812 231.164062 201.535156 230.871094 201.324219 C 230.574219 201.113281 230.273438 200.910156 229.964844 200.710938 C 229.660156 200.515625 229.347656 200.328125 229.03125 200.144531 C 228.714844 199.964844 228.390625 199.792969 228.066406 199.628906 C 227.742188 199.464844 227.410156 199.3125 227.078125 199.164062 C 226.746094 199.015625 226.40625 198.878906 226.066406 198.75 C 225.726562 198.621094 225.378906 198.5 225.035156 198.390625 C 224.6875 198.277344 224.339844 198.175781 223.984375 198.082031 C 223.632812 197.988281 223.277344 197.902344 222.921875 197.828125 C 222.566406 197.753906 222.207031 197.6875 221.847656 197.632812 C 221.484375 197.574219 221.125 197.527344 220.761719 197.492188 C 220.398438 197.453125 220.035156 197.425781 219.671875 197.40625 C 219.308594 197.386719 218.945312 197.378906 218.578125 197.378906 C 218.214844 197.378906 217.851562 197.386719 217.488281 197.40625 C 217.121094 197.425781 216.757812 197.453125 216.398438 197.492188 C 216.035156 197.527344 215.671875 197.574219 215.3125 197.632812 C 214.953125 197.6875 214.59375 197.753906 214.238281 197.828125 C 213.878906 197.902344 213.527344 197.988281 213.175781 198.082031 C 212.820312 198.175781 212.472656 198.277344 212.125 198.390625 C 211.777344 198.5 211.433594 198.621094 211.09375 198.75 C 210.753906 198.878906 210.414062 199.015625 210.082031 199.164062 C 209.746094 199.3125 209.417969 199.464844 209.09375 199.628906 C 208.765625 199.792969 208.445312 199.964844 208.128906 200.144531 C 207.8125 200.328125 207.5 200.515625 207.195312 200.710938 C 206.886719 200.910156 206.585938 201.113281 206.289062 201.324219 C 205.992188 201.535156 205.703125 201.757812 205.417969 201.984375 C 205.132812 202.210938 204.855469 202.445312 204.582031 202.6875 C 204.308594 202.929688 204.042969 203.179688 203.785156 203.433594 C 203.523438 203.691406 203.269531 203.953125 203.023438 204.21875 C 202.777344 204.488281 202.539062 204.765625 202.308594 205.042969 C 202.074219 205.324219 201.851562 205.613281 201.632812 205.90625 C 201.417969 206.199219 201.207031 206.496094 201.003906 206.796875 C 200.804688 207.101562 200.609375 207.410156 200.425781 207.722656 C 200.238281 208.039062 200.0625 208.355469 199.894531 208.679688 C 199.722656 209 199.5625 209.328125 199.410156 209.660156 C 199.257812 209.992188 199.117188 210.324219 198.980469 210.664062 C 198.847656 211.003906 198.722656 211.34375 198.605469 211.6875 C 198.484375 212.035156 198.378906 212.378906 198.28125 212.730469 C 198.179688 213.082031 198.089844 213.433594 198.011719 213.789062 C 197.929688 214.144531 197.859375 214.503906 197.796875 214.859375 C 197.734375 215.21875 197.683594 215.582031 197.636719 215.941406 C 197.59375 216.304688 197.558594 216.667969 197.535156 217.03125 C 197.511719 217.394531 197.496094 217.757812 197.488281 218.121094 C 197.484375 218.484375 197.488281 218.847656 197.5 219.214844 C 197.515625 219.578125 197.535156 219.941406 197.570312 220.304688 C 197.601562 220.667969 197.640625 221.027344 197.691406 221.390625 C 197.746094 221.75 197.804688 222.109375 197.875 222.464844 C 197.941406 222.824219 198.019531 223.179688 198.109375 223.53125 C 198.195312 223.886719 198.292969 224.238281 198.402344 224.585938 C 198.503906 224.933594 198.621094 225.28125 198.746094 225.621094 C 198.871094 225.964844 199.003906 226.304688 199.144531 226.640625 C 199.285156 226.972656 199.433594 227.308594 199.59375 227.632812 C 199.753906 227.964844 199.921875 228.285156 200.097656 228.605469 C 200.269531 228.925781 200.453125 229.238281 200.648438 229.546875 C 200.839844 229.859375 201.039062 230.160156 201.246094 230.460938 C 201.453125 230.761719 201.667969 231.054688 201.890625 231.34375 C 202.117188 231.628906 202.347656 231.914062 202.582031 232.191406 C 202.820312 232.464844 203.066406 232.734375 203.316406 233 C 203.566406 233.261719 203.828125 233.519531 204.089844 233.769531 C 204.355469 234.019531 204.628906 234.265625 204.90625 234.5 C 205.183594 234.734375 205.464844 234.964844 205.753906 235.1875 C 194.289062 237.484375 186.941406 245.007812 186.941406 255.453125 C 186.941406 255.628906 186.949219 255.796875 186.964844 255.972656 C 186.984375 256.140625 187.007812 256.3125 187.042969 256.484375 C 187.074219 256.652344 187.117188 256.816406 187.167969 256.984375 C 187.21875 257.148438 187.277344 257.3125 187.339844 257.472656 C 187.40625 257.628906 187.480469 257.785156 187.5625 257.9375 C 187.644531 258.089844 187.734375 258.238281 187.828125 258.382812 C 187.925781 258.527344 188.027344 258.664062 188.136719 258.796875 C 188.246094 258.929688 188.363281 259.058594 188.484375 259.179688 C 188.605469 259.304688 188.734375 259.417969 188.867188 259.527344 C 189.003906 259.636719 189.140625 259.742188 189.285156 259.835938 C 189.429688 259.933594 189.574219 260.019531 189.726562 260.101562 C 189.878906 260.183594 190.035156 260.257812 190.195312 260.324219 C 190.355469 260.390625 190.519531 260.445312 190.683594 260.496094 C 190.847656 260.546875 191.015625 260.589844 191.183594 260.621094 C 191.355469 260.65625 191.527344 260.679688 191.699219 260.699219 C 191.871094 260.714844 192.042969 260.722656 192.214844 260.722656 L 244.945312 260.722656 C 245.117188 260.722656 245.289062 260.714844 245.460938 260.699219 C 245.632812 260.679688 245.804688 260.65625 245.972656 260.621094 C 246.144531 260.589844 246.3125 260.546875 246.476562 260.496094 C 246.640625 260.445312 246.804688 260.390625 246.964844 260.324219 C 247.121094 260.257812 247.277344 260.183594 247.433594 260.101562 C 247.582031 260.019531 247.730469 259.933594 247.875 259.835938 C 248.019531 259.742188 248.15625 259.636719 248.292969 259.527344 C 248.425781 259.417969 248.550781 259.304688 248.675781 259.179688 C 248.796875 259.058594 248.910156 258.929688 249.023438 258.796875 C 249.132812 258.664062 249.234375 258.527344 249.328125 258.382812 C 249.425781 258.238281 249.515625 258.089844 249.597656 257.9375 C 249.679688 257.785156 249.75 257.628906 249.816406 257.472656 C 249.882812 257.3125 249.941406 257.148438 249.992188 256.984375 C 250.042969 256.816406 250.082031 256.652344 250.117188 256.484375 C 250.152344 256.3125 250.175781 256.140625 250.191406 255.972656 C 250.210938 255.796875 250.21875 255.628906 250.21875 255.453125 C 250.21875 245.007812 242.871094 237.484375 231.402344 235.1875 Z M 231.402344 235.1875"/></g><path fill="#F04141" d="M 179.109375 208.785156 L 155.304688 194.515625 L 155.304688 171.152344 C 155.304688 170.980469 155.292969 170.808594 155.277344 170.636719 C 155.261719 170.464844 155.234375 170.292969 155.203125 170.125 C 155.167969 169.953125 155.125 169.789062 155.078125 169.621094 C 155.027344 169.457031 154.96875 169.296875 154.902344 169.136719 C 154.835938 168.976562 154.761719 168.820312 154.679688 168.667969 C 154.597656 168.515625 154.511719 168.371094 154.414062 168.226562 C 154.316406 168.082031 154.214844 167.941406 154.105469 167.808594 C 153.996094 167.675781 153.878906 167.546875 153.757812 167.425781 C 153.636719 167.304688 153.507812 167.1875 153.375 167.078125 C 153.242188 166.96875 153.101562 166.867188 152.960938 166.773438 C 152.816406 166.675781 152.667969 166.585938 152.515625 166.503906 C 152.363281 166.425781 152.207031 166.351562 152.046875 166.285156 C 151.886719 166.21875 151.726562 166.160156 151.558594 166.109375 C 151.394531 166.058594 151.226562 166.019531 151.058594 165.984375 C 150.890625 165.953125 150.71875 165.925781 150.546875 165.910156 C 150.375 165.890625 150.203125 165.882812 150.03125 165.882812 C 149.859375 165.882812 149.683594 165.890625 149.511719 165.910156 C 149.339844 165.925781 149.171875 165.953125 149 165.984375 C 148.832031 166.019531 148.664062 166.058594 148.5 166.109375 C 148.335938 166.160156 148.171875 166.21875 148.011719 166.285156 C 147.851562 166.351562 147.695312 166.425781 147.542969 166.503906 C 147.390625 166.585938 147.246094 166.675781 147.101562 166.773438 C 146.957031 166.867188 146.816406 166.96875 146.683594 167.078125 C 146.550781 167.1875 146.421875 167.304688 146.300781 167.425781 C 146.179688 167.546875 146.0625 167.675781 145.953125 167.808594 C 145.84375 167.941406 145.742188 168.082031 145.644531 168.226562 C 145.550781 168.371094 145.460938 168.515625 145.378906 168.667969 C 145.296875 168.820312 145.222656 168.976562 145.160156 169.136719 C 145.09375 169.296875 145.035156 169.457031 144.984375 169.621094 C 144.933594 169.789062 144.890625 169.953125 144.859375 170.125 C 144.824219 170.292969 144.796875 170.464844 144.78125 170.636719 C 144.765625 170.808594 144.757812 170.980469 144.757812 171.152344 L 144.757812 194.515625 L 120.953125 208.785156 C 120.703125 208.933594 120.472656 209.097656 120.253906 209.285156 C 120.035156 209.46875 119.835938 209.671875 119.648438 209.890625 C 119.464844 210.109375 119.296875 210.339844 119.148438 210.585938 C 119 210.828125 118.875 211.085938 118.765625 211.351562 C 118.660156 211.617188 118.578125 211.890625 118.515625 212.167969 C 118.453125 212.449219 118.414062 212.730469 118.398438 213.015625 C 118.382812 213.300781 118.390625 213.589844 118.421875 213.871094 C 118.453125 214.15625 118.507812 214.4375 118.582031 214.714844 C 118.660156 214.988281 118.757812 215.253906 118.878906 215.515625 C 119 215.777344 119.140625 216.023438 119.300781 216.261719 C 119.460938 216.496094 119.640625 216.71875 119.839844 216.929688 C 120.035156 217.136719 120.246094 217.328125 120.476562 217.5 C 120.703125 217.671875 120.945312 217.828125 121.199219 217.960938 C 121.449219 218.09375 121.714844 218.207031 121.984375 218.296875 C 122.253906 218.390625 122.535156 218.457031 122.816406 218.503906 C 123.097656 218.550781 123.382812 218.574219 123.671875 218.570312 C 124.644531 218.574219 125.546875 218.324219 126.378906 217.820312 L 150.03125 203.640625 L 173.683594 217.820312 C 174.515625 218.324219 175.417969 218.574219 176.390625 218.570312 C 176.675781 218.574219 176.960938 218.550781 177.246094 218.503906 C 177.527344 218.457031 177.804688 218.390625 178.074219 218.296875 C 178.347656 218.207031 178.609375 218.09375 178.863281 217.960938 C 179.117188 217.828125 179.355469 217.671875 179.585938 217.5 C 179.8125 217.328125 180.027344 217.136719 180.222656 216.929688 C 180.417969 216.71875 180.597656 216.496094 180.757812 216.261719 C 180.921875 216.023438 181.058594 215.777344 181.179688 215.515625 C 181.300781 215.253906 181.398438 214.988281 181.476562 214.714844 C 181.554688 214.4375 181.605469 214.15625 181.636719 213.871094 C 181.667969 213.589844 181.675781 213.300781 181.660156 213.015625 C 181.644531 212.730469 181.605469 212.449219 181.542969 212.167969 C 181.484375 211.890625 181.398438 211.617188 181.292969 211.351562 C 181.1875 211.085938 181.058594 210.828125 180.910156 210.585938 C 180.765625 210.339844 180.597656 210.109375 180.410156 209.890625 C 180.226562 209.671875 180.023438 209.46875 179.804688 209.285156 C 179.585938 209.097656 179.355469 208.933594 179.109375 208.785156 Z M 179.109375 208.785156"/><path fill="#F04141" d="M 134.210938 113.195312 L 165.847656 113.195312 L 165.847656 155.347656 L 134.210938 155.347656 Z M 134.210938 113.195312"/><path fill="#F04141" d="M 92.027344 155.347656 L 123.664062 155.347656 L 123.664062 107.925781 C 123.664062 107.753906 123.671875 107.582031 123.691406 107.410156 C 123.707031 107.238281 123.730469 107.066406 123.765625 106.898438 C 123.796875 106.730469 123.839844 106.5625 123.890625 106.394531 C 123.941406 106.230469 124 106.066406 124.066406 105.910156 C 124.128906 105.75 124.203125 105.59375 124.285156 105.441406 C 124.367188 105.289062 124.457031 105.140625 124.550781 104.996094 C 124.648438 104.855469 124.75 104.714844 124.859375 104.582031 C 124.96875 104.449219 125.085938 104.320312 125.207031 104.199219 C 125.328125 104.078125 125.457031 103.960938 125.589844 103.851562 C 125.726562 103.742188 125.863281 103.640625 126.007812 103.542969 C 126.152344 103.449219 126.296875 103.359375 126.453125 103.277344 C 126.605469 103.195312 126.757812 103.125 126.917969 103.058594 C 127.078125 102.992188 127.242188 102.933594 127.40625 102.882812 C 127.570312 102.832031 127.738281 102.792969 127.910156 102.757812 C 128.078125 102.722656 128.25 102.699219 128.421875 102.683594 C 128.59375 102.664062 128.765625 102.65625 128.9375 102.65625 L 171.121094 102.65625 C 171.296875 102.65625 171.46875 102.664062 171.640625 102.683594 C 171.8125 102.699219 171.980469 102.722656 172.152344 102.757812 C 172.320312 102.792969 172.488281 102.832031 172.652344 102.882812 C 172.816406 102.933594 172.980469 102.992188 173.140625 103.058594 C 173.300781 103.125 173.457031 103.195312 173.609375 103.277344 C 173.761719 103.359375 173.910156 103.449219 174.050781 103.542969 C 174.195312 103.640625 174.335938 103.742188 174.46875 103.851562 C 174.601562 103.960938 174.730469 104.078125 174.851562 104.199219 C 174.972656 104.320312 175.089844 104.449219 175.199219 104.582031 C 175.308594 104.714844 175.410156 104.855469 175.507812 104.996094 C 175.601562 105.140625 175.691406 105.289062 175.773438 105.441406 C 175.855469 105.59375 175.929688 105.75 175.996094 105.910156 C 176.058594 106.066406 176.121094 106.230469 176.167969 106.394531 C 176.21875 106.5625 176.261719 106.730469 176.292969 106.898438 C 176.328125 107.066406 176.351562 107.238281 176.371094 107.410156 C 176.386719 107.582031 176.394531 107.753906 176.394531 107.925781 L 176.394531 155.347656 L 208.035156 155.347656 C 208.207031 155.347656 208.378906 155.339844 208.550781 155.320312 C 208.722656 155.304688 208.894531 155.277344 209.0625 155.246094 C 209.230469 155.210938 209.398438 155.171875 209.566406 155.121094 C 209.730469 155.070312 209.890625 155.011719 210.050781 154.945312 C 210.210938 154.878906 210.367188 154.804688 210.519531 154.722656 C 210.671875 154.644531 210.820312 154.554688 210.964844 154.457031 C 211.109375 154.363281 211.246094 154.261719 211.378906 154.152344 C 211.511719 154.042969 211.640625 153.925781 211.761719 153.804688 C 211.886719 153.683594 212 153.554688 212.109375 153.421875 C 212.21875 153.285156 212.324219 153.148438 212.417969 153.003906 C 212.515625 152.859375 212.601562 152.714844 212.683594 152.5625 C 212.765625 152.410156 212.839844 152.253906 212.90625 152.09375 C 212.972656 151.933594 213.03125 151.773438 213.078125 151.605469 C 213.128906 151.441406 213.171875 151.273438 213.207031 151.105469 C 213.238281 150.9375 213.265625 150.765625 213.28125 150.59375 C 213.296875 150.421875 213.308594 150.25 213.308594 150.078125 L 213.308594 76.3125 C 213.308594 75.839844 213.246094 75.375 213.117188 74.917969 C 212.992188 74.464844 212.808594 74.03125 212.566406 73.625 C 212.324219 73.21875 212.035156 72.851562 211.691406 72.523438 C 211.351562 72.195312 210.972656 71.917969 210.558594 71.691406 L 152.554688 40.078125 C 152.167969 39.867188 151.757812 39.707031 151.332031 39.597656 C 150.90625 39.484375 150.472656 39.429688 150.03125 39.429688 C 149.589844 39.429688 149.15625 39.484375 148.726562 39.597656 C 148.300781 39.707031 147.894531 39.867188 147.507812 40.078125 L 89.503906 71.691406 C 89.085938 71.917969 88.707031 72.195312 88.367188 72.523438 C 88.027344 72.851562 87.734375 73.21875 87.492188 73.625 C 87.25 74.03125 87.066406 74.464844 86.941406 74.917969 C 86.816406 75.375 86.753906 75.839844 86.753906 76.3125 L 86.753906 150.078125 C 86.753906 150.25 86.761719 150.421875 86.777344 150.59375 C 86.796875 150.765625 86.820312 150.9375 86.855469 151.105469 C 86.886719 151.273438 86.929688 151.441406 86.980469 151.605469 C 87.03125 151.773438 87.089844 151.933594 87.152344 152.09375 C 87.21875 152.253906 87.292969 152.410156 87.375 152.5625 C 87.457031 152.714844 87.546875 152.859375 87.640625 153.003906 C 87.738281 153.148438 87.839844 153.285156 87.949219 153.421875 C 88.058594 153.554688 88.175781 153.683594 88.296875 153.804688 C 88.417969 153.925781 88.546875 154.042969 88.679688 154.152344 C 88.8125 154.261719 88.953125 154.363281 89.097656 154.457031 C 89.238281 154.554688 89.386719 154.644531 89.539062 154.722656 C 89.691406 154.804688 89.847656 154.878906 90.007812 154.945312 C 90.167969 155.011719 90.328125 155.070312 90.496094 155.121094 C 90.660156 155.171875 90.828125 155.210938 90.996094 155.246094 C 91.167969 155.277344 91.335938 155.304688 91.507812 155.320312 C 91.683594 155.339844 91.851562 155.347656 92.027344 155.347656 Z M 92.027344 155.347656"/></svg>