<svg xmlns="http://www.w3.org/2000/svg" width="300" viewBox="0 0 300 300" height="300" version="1.0"><defs><clipPath id="a"><path d="M 37.5 0 L 262.5 0 L 262.5 300 L 37.5 300 Z M 37.5 0"/></clipPath><clipPath id="b"><path d="M 37.5 0 L 151 0 L 151 300 L 37.5 300 Z M 37.5 0"/></clipPath></defs><g clip-path="url(#a)"><path fill="#5D9CEC" d="M 150.09375 0 C 88.050781 0 37.75 50.296875 37.75 112.339844 C 37.75 218.933594 150.09375 300 150.09375 300 C 150.09375 300 262.429688 218.933594 262.429688 112.339844 C 262.429688 50.296875 212.136719 0 150.09375 0 Z M 150.09375 0"/></g><g clip-path="url(#b)"><path fill="#FFF" d="M 37.75 112.339844 C 37.75 218.933594 150.09375 300 150.09375 300 L 150.09375 0 C 88.046875 0 37.75 50.296875 37.75 112.339844 Z M 37.75 112.339844" fill-opacity=".149"/></g><path fill="#4A89DC" d="M 246.609375 112.339844 C 246.609375 113.917969 246.570312 115.5 246.492188 117.074219 C 246.417969 118.652344 246.300781 120.226562 246.144531 121.800781 C 245.992188 123.371094 245.796875 124.9375 245.566406 126.5 C 245.332031 128.0625 245.0625 129.621094 244.753906 131.167969 C 244.449219 132.71875 244.101562 134.257812 243.71875 135.792969 C 243.332031 137.324219 242.914062 138.84375 242.453125 140.355469 C 241.996094 141.867188 241.5 143.367188 240.96875 144.855469 C 240.4375 146.34375 239.867188 147.816406 239.261719 149.273438 C 238.660156 150.734375 238.019531 152.175781 237.34375 153.605469 C 236.667969 155.035156 235.957031 156.445312 235.214844 157.835938 C 234.46875 159.230469 233.691406 160.605469 232.878906 161.957031 C 232.066406 163.3125 231.222656 164.648438 230.34375 165.960938 C 229.464844 167.273438 228.558594 168.566406 227.617188 169.832031 C 226.675781 171.101562 225.703125 172.347656 224.703125 173.570312 C 223.699219 174.789062 222.667969 175.984375 221.609375 177.15625 C 220.546875 178.324219 219.457031 179.46875 218.339844 180.585938 C 217.222656 181.703125 216.082031 182.792969 214.910156 183.851562 C 213.738281 184.914062 212.542969 185.945312 211.324219 186.945312 C 210.101562 187.949219 208.859375 188.921875 207.589844 189.863281 C 206.320312 190.800781 205.027344 191.710938 203.714844 192.589844 C 202.402344 193.464844 201.070312 194.3125 199.714844 195.125 C 198.359375 195.9375 196.984375 196.714844 195.59375 197.457031 C 194.199219 198.203125 192.789062 198.914062 191.359375 199.589844 C 189.933594 200.265625 188.488281 200.902344 187.03125 201.507812 C 185.570312 202.113281 184.097656 202.679688 182.609375 203.214844 C 181.121094 203.746094 179.625 204.242188 178.113281 204.699219 C 176.601562 205.15625 175.078125 205.578125 173.546875 205.960938 C 172.015625 206.347656 170.472656 206.691406 168.925781 207 C 167.375 207.308594 165.820312 207.578125 164.257812 207.808594 C 162.695312 208.042969 161.128906 208.234375 159.554688 208.390625 C 157.984375 208.546875 156.410156 208.660156 154.832031 208.738281 C 153.253906 208.816406 151.675781 208.855469 150.09375 208.855469 C 148.515625 208.855469 146.9375 208.816406 145.359375 208.738281 C 143.78125 208.660156 142.207031 208.546875 140.636719 208.390625 C 139.0625 208.234375 137.496094 208.042969 135.933594 207.808594 C 134.371094 207.578125 132.816406 207.308594 131.265625 207 C 129.714844 206.691406 128.175781 206.347656 126.644531 205.960938 C 125.113281 205.578125 123.589844 205.15625 122.078125 204.699219 C 120.566406 204.242188 119.066406 203.746094 117.578125 203.214844 C 116.09375 202.679688 114.621094 202.113281 113.160156 201.507812 C 111.699219 200.902344 110.257812 200.265625 108.828125 199.589844 C 107.402344 198.914062 105.992188 198.203125 104.597656 197.457031 C 103.207031 196.714844 101.832031 195.9375 100.476562 195.125 C 99.121094 194.3125 97.789062 193.464844 96.472656 192.589844 C 95.160156 191.710938 93.871094 190.800781 92.601562 189.863281 C 91.332031 188.921875 90.085938 187.949219 88.867188 186.945312 C 87.644531 185.945312 86.449219 184.914062 85.28125 183.851562 C 84.109375 182.792969 82.964844 181.703125 81.847656 180.585938 C 80.730469 179.46875 79.644531 178.324219 78.582031 177.15625 C 77.519531 175.984375 76.488281 174.789062 75.488281 173.570312 C 74.484375 172.347656 73.515625 171.101562 72.574219 169.832031 C 71.632812 168.566406 70.722656 167.273438 69.84375 165.960938 C 68.96875 164.648438 68.125 163.3125 67.3125 161.957031 C 66.5 160.605469 65.722656 159.230469 64.976562 157.835938 C 64.230469 156.445312 63.523438 155.035156 62.847656 153.605469 C 62.171875 152.175781 61.53125 150.734375 60.925781 149.273438 C 60.324219 147.816406 59.753906 146.34375 59.222656 144.855469 C 58.691406 143.367188 58.195312 141.867188 57.734375 140.355469 C 57.277344 138.84375 56.855469 137.324219 56.472656 135.792969 C 56.089844 134.257812 55.742188 132.71875 55.433594 131.167969 C 55.125 129.621094 54.855469 128.0625 54.625 126.5 C 54.394531 124.9375 54.199219 123.371094 54.042969 121.800781 C 53.890625 120.226562 53.773438 118.652344 53.695312 117.074219 C 53.617188 115.5 53.578125 113.917969 53.578125 112.339844 C 53.578125 110.761719 53.617188 109.183594 53.695312 107.605469 C 53.773438 106.027344 53.890625 104.453125 54.042969 102.878906 C 54.199219 101.308594 54.394531 99.742188 54.625 98.179688 C 54.855469 96.617188 55.125 95.058594 55.433594 93.511719 C 55.742188 91.960938 56.089844 90.421875 56.472656 88.890625 C 56.855469 87.355469 57.277344 85.835938 57.734375 84.324219 C 58.195312 82.8125 58.691406 81.3125 59.222656 79.824219 C 59.753906 78.335938 60.324219 76.863281 60.925781 75.40625 C 61.53125 73.945312 62.171875 72.503906 62.847656 71.074219 C 63.523438 69.648438 64.230469 68.234375 64.976562 66.84375 C 65.722656 65.449219 66.5 64.078125 67.3125 62.722656 C 68.125 61.367188 68.96875 60.03125 69.84375 58.71875 C 70.722656 57.40625 71.632812 56.113281 72.574219 54.847656 C 73.515625 53.578125 74.484375 52.332031 75.488281 51.113281 C 76.488281 49.890625 77.519531 48.695312 78.582031 47.523438 C 79.644531 46.355469 80.730469 45.210938 81.847656 44.09375 C 82.964844 42.976562 84.109375 41.886719 85.28125 40.828125 C 86.449219 39.765625 87.644531 38.734375 88.867188 37.734375 C 90.085938 36.730469 91.332031 35.757812 92.601562 34.820312 C 93.871094 33.878906 95.160156 32.96875 96.472656 32.089844 C 97.789062 31.214844 99.121094 30.367188 100.476562 29.554688 C 101.832031 28.746094 103.207031 27.964844 104.597656 27.222656 C 105.992188 26.476562 107.402344 25.765625 108.828125 25.089844 C 110.257812 24.417969 111.699219 23.777344 113.160156 23.171875 C 114.621094 22.566406 116.09375 22 117.578125 21.46875 C 119.066406 20.933594 120.566406 20.4375 122.078125 19.980469 C 123.589844 19.523438 125.113281 19.101562 126.644531 18.71875 C 128.175781 18.332031 129.714844 17.988281 131.265625 17.679688 C 132.816406 17.371094 134.371094 17.101562 135.933594 16.871094 C 137.496094 16.636719 139.0625 16.445312 140.636719 16.289062 C 142.207031 16.136719 143.78125 16.019531 145.359375 15.941406 C 146.9375 15.863281 148.515625 15.824219 150.09375 15.824219 C 151.675781 15.824219 153.253906 15.863281 154.832031 15.941406 C 156.410156 16.019531 157.984375 16.136719 159.554688 16.289062 C 161.128906 16.445312 162.695312 16.636719 164.257812 16.871094 C 165.820312 17.101562 167.375 17.371094 168.925781 17.679688 C 170.472656 17.988281 172.015625 18.332031 173.546875 18.71875 C 175.078125 19.101562 176.601562 19.523438 178.113281 19.980469 C 179.625 20.4375 181.121094 20.933594 182.609375 21.46875 C 184.097656 22 185.570312 22.566406 187.03125 23.171875 C 188.488281 23.777344 189.933594 24.417969 191.359375 25.089844 C 192.789062 25.765625 194.199219 26.476562 195.59375 27.222656 C 196.984375 27.964844 198.359375 28.746094 199.714844 29.554688 C 201.070312 30.367188 202.402344 31.214844 203.714844 32.089844 C 205.027344 32.96875 206.320312 33.878906 207.589844 34.820312 C 208.859375 35.757812 210.101562 36.730469 211.324219 37.734375 C 212.542969 38.734375 213.738281 39.765625 214.910156 40.828125 C 216.082031 41.886719 217.222656 42.976562 218.339844 44.09375 C 219.457031 45.210938 220.546875 46.355469 221.609375 47.523438 C 222.667969 48.695312 223.699219 49.890625 224.703125 51.113281 C 225.703125 52.332031 226.675781 53.578125 227.617188 54.847656 C 228.558594 56.113281 229.464844 57.40625 230.34375 58.71875 C 231.222656 60.03125 232.066406 61.367188 232.878906 62.722656 C 233.691406 64.074219 234.46875 65.449219 235.214844 66.84375 C 235.957031 68.234375 236.667969 69.648438 237.34375 71.074219 C 238.019531 72.503906 238.660156 73.945312 239.261719 75.40625 C 239.867188 76.863281 240.4375 78.335938 240.96875 79.824219 C 241.5 81.3125 241.996094 82.8125 242.453125 84.324219 C 242.914062 85.835938 243.332031 87.355469 243.71875 88.890625 C 244.101562 90.421875 244.449219 91.960938 244.753906 93.511719 C 245.0625 95.058594 245.332031 96.617188 245.566406 98.179688 C 245.796875 99.742188 245.992188 101.308594 246.144531 102.878906 C 246.300781 104.453125 246.417969 106.027344 246.492188 107.605469 C 246.570312 109.183594 246.609375 110.761719 246.609375 112.339844 Z M 246.609375 112.339844"/><path fill="#FFF" d="M 189.285156 88.738281 L 189.285156 60.414062 L 177.820312 60.414062 L 177.820312 77.273438 L 149.125 48.589844 L 91.835938 105.886719 L 99.941406 113.988281 L 149.125 64.804688 L 198.371094 114.046875 L 206.476562 105.941406 Z M 189.285156 88.738281"/><path fill="#FFF" d="M 109.03125 118.09375 L 109.03125 163.589844 L 137.75 163.589844 L 137.75 134.929688 L 160.566406 134.929688 L 160.566406 163.589844 L 189.285156 163.589844 L 189.285156 118.09375 L 149.15625 77.605469 Z M 109.03125 118.09375"/></svg>